<svg id="Layer_1" data-name="Layer 1" xmlns="http://www.w3.org/2000/svg" xmlns:xlink="http://www.w3.org/1999/xlink" viewBox="0 0 18.6787 18.6787"><defs><clipPath id="clip-path"><path d="M-13.72829,3.80251l-1.82682,1.82682-1.82682-1.82682,1.82682-1.82682Zm7.77423,4.156L-7.78088,9.78535-9.6077,7.95853l1.82682-1.82682Zm-5.37888.426-1.82682,1.82682-1.82682-1.82682,1.82682-1.82683Zm-4.91194,6.07418-1.82682-1.82682,1.82682-1.82682,1.82682,1.82682Zm10.08494,2.36993H-20.5717a.29412.29412,0,0,1-.29412-.29412V2.12275a.29412.29412,0,0,1,.29412-.29412h.58823a.29412.29412,0,0,1,.29412.29412V15.65216H-6.15994a.29412.29412,0,0,1,.29412.29412v.58823A.29412.29412,0,0,1-6.15994,16.82863Z" style="fill:#8786a4"/></clipPath><clipPath id="clip-path-2"><path d="M2.22237,3.55787H16.59854V6.0014H2.22237Zm0,4.59586h8.3465v2.4098H2.22237Zm0,4.56213h11.779v2.405H2.22237Z" style="fill:#8786a4"/></clipPath><clipPath id="clip-path-3"><path d="M38.04157,9.31235a7.197,7.197,0,0,1-11.69775,5.61909l2.57765-2.57794a3.56221,3.56221,0,0,0,1.9201.55885,3.59772,3.59772,0,0,0,.84375-7.09565V2.16635A7.24251,7.24251,0,0,1,38.04157,9.31235ZM29.96969,2.16973V5.82345a3.5905,3.5905,0,0,0-2.239,5.29453l-2.58891,2.5889A7.1927,7.1927,0,0,1,29.96969,2.16973Z" style="fill:#8786a4;clip-rule:evenodd"/></clipPath><clipPath id="clip-path-4"><rect x="-2146.15843" y="-758.66177" width="2400" height="3281" style="fill:#8786a4"/></clipPath><clipPath id="clip-path-5"><path d="M52.14045,10.40074h7.47316a6.95842,6.95842,0,0,1-6.93631,6.42789c-.18158,0-.35842-.01421-.53685-.02684a6.95684,6.95684,0,0,1-6.401-6.401c-.01263-.17843-.02684-.35527-.02684-.53685a6.95842,6.95842,0,0,1,6.42789-6.93631Zm8.54527-1.07211H53.21256V1.85547c.17842-.01263.35526-.02684.53526-.02684a6.96474,6.96474,0,0,1,6.96474,6.96474C60.71256,8.97337,60.69835,9.15021,60.68572,9.32863Z" style="fill:#8786a4"/></clipPath></defs><title>Untitled-2</title><g style="isolation:isolate"><path d="M-13.72829,3.80251l-1.82682,1.82682-1.82682-1.82682,1.82682-1.82682Zm7.77423,4.156L-7.78088,9.78535-9.6077,7.95853l1.82682-1.82682Zm-5.37888.426-1.82682,1.82682-1.82682-1.82682,1.82682-1.82683Zm-4.91194,6.07418-1.82682-1.82682,1.82682-1.82682,1.82682,1.82682Zm10.08494,2.36993H-20.5717a.29412.29412,0,0,1-.29412-.29412V2.12275a.29412.29412,0,0,1,.29412-.29412h.58823a.29412.29412,0,0,1,.29412.29412V15.65216H-6.15994a.29412.29412,0,0,1,.29412.29412v.58823A.29412.29412,0,0,1-6.15994,16.82863Z" style="fill:#8786a4"/></g><g style="isolation:isolate"><path d="M2.22237,3.55787H16.59854V6.0014H2.22237Zm0,4.59586h8.3465v2.4098H2.22237Zm0,4.56213h11.779v2.405H2.22237Z" style="fill:#8786a4"/></g><path d="M38.04157,9.31235a7.197,7.197,0,0,1-11.69775,5.61909l2.57765-2.57794a3.56221,3.56221,0,0,0,1.9201.55885,3.59772,3.59772,0,0,0,.84375-7.09565V2.16635A7.24251,7.24251,0,0,1,38.04157,9.31235ZM29.96969,2.16973V5.82345a3.5905,3.5905,0,0,0-2.239,5.29453l-2.58891,2.5889A7.1927,7.1927,0,0,1,29.96969,2.16973Z" style="fill:#8786a4;fill-rule:evenodd"/><g style="clip-path:url(#clip-path-3)"><rect x="-2146.15843" y="-758.66177" width="2400" height="3281" style="fill:#8786a4"/><g style="clip-path:url(#clip-path-4)"><rect x="18.64157" y="-2.83365" width="24.4" height="24.346" style="fill:#8786a4"/></g></g><g style="isolation:isolate"><path d="M52.14045,10.40074h7.47316a6.95842,6.95842,0,0,1-6.93631,6.42789c-.18158,0-.35842-.01421-.53685-.02684a6.95684,6.95684,0,0,1-6.401-6.401c-.01263-.17843-.02684-.35527-.02684-.53685a6.95842,6.95842,0,0,1,6.42789-6.93631Zm8.54527-1.07211H53.21256V1.85547c.17842-.01263.35526-.02684.53526-.02684a6.96474,6.96474,0,0,1,6.96474,6.96474C60.71256,8.97337,60.69835,9.15021,60.68572,9.32863Z" style="fill:#8786a4"/></g></svg>