<?xml version="1.0" encoding="utf-8"?>
<!-- Generator: Adobe Illustrator 23.0.4, SVG Export Plug-In . SVG Version: 6.00 Build 0)  -->
<svg version="1.1" id="Layer_1" xmlns="http://www.w3.org/2000/svg" xmlns:xlink="http://www.w3.org/1999/xlink" x="0px" y="0px"
	 viewBox="0 0 18.7 18.7" style="enable-background:new 0 0 18.7 18.7;" xml:space="preserve">
<style type="text/css">
	.st0{fill:#FFFFFF;}
</style>
<g>
	<path class="st0" d="M16.5,16.8H2.1c-0.2,0-0.3-0.1-0.3-0.3l0,0V2.1C1.8,2,2,1.8,2.1,1.8l0,0h0.6C2.9,1.8,3,2,3,2.1l0,0v13.5h13.5
		c0.2,0,0.3,0.1,0.3,0.3c0,0,0,0,0,0v0.6C16.8,16.7,16.7,16.8,16.5,16.8L16.5,16.8z M14.4,4.7c0,1-0.8,1.7-1.7,1.7
		c-1,0-1.7-0.8-1.7-1.7s0.8-1.7,1.7-1.7c0,0,0,0,0,0C13.7,2.9,14.4,3.7,14.4,4.7z M12.2,10.3c0,2-1.6,3.6-3.6,3.6
		c-2,0-3.6-1.6-3.6-3.6c0-2,1.6-3.6,3.6-3.6c0,0,0,0,0,0C10.6,6.7,12.2,8.3,12.2,10.3z"/>
</g>
</svg>
