<svg id="Layer_1" data-name="Layer 1" xmlns="http://www.w3.org/2000/svg" xmlns:xlink="http://www.w3.org/1999/xlink" viewBox="0 0 18.6787 18.6787"><defs><clipPath id="clip-path"><path d="M-104.02154,9.31235a7.20793,7.20793,0,0,1-7.2,7.2,7.20442,7.20442,0,0,1-4.49775-1.58091l2.57766-2.57794a3.56215,3.56215,0,0,0,1.92009.55885,3.60405,3.60405,0,0,0,3.6-3.6,3.57366,3.57366,0,0,0-2.75625-3.49565V2.16635A7.24251,7.24251,0,0,1-104.02154,9.31235Zm-8.07187-7.14262V5.82345a3.57343,3.57343,0,0,0-2.72813,3.4889,3.56031,3.56031,0,0,0,.4891,1.80563l-2.58891,2.5889a7.20575,7.20575,0,0,1-1.50019-4.39453A7.24284,7.24284,0,0,1-112.09341,2.16973Z" style="fill:#8786a4;clip-rule:evenodd"/></clipPath><clipPath id="clip-path-2"><path d="M-11.04424,16.35387a1.05537,1.05537,0,0,1-1.08947-1.01722V2.79091a1.05536,1.05536,0,0,1,1.08947-1.01722A1.05537,1.05537,0,0,1-9.95477,2.79091V15.33665a1.05538,1.05538,0,0,1-1.08947,1.01722m-3.8126-1.01722V6.93049A1.05536,1.05536,0,0,0-15.9463,5.91328a1.05525,1.05525,0,0,0-1.08947,1.01721v8.40616a1.05525,1.05525,0,0,0,1.08947,1.01722,1.05537,1.05537,0,0,0,1.08946-1.01722m-4.90315,0V11.0711a1.05536,1.05536,0,0,0-1.08947-1.01722,1.05536,1.05536,0,0,0-1.08946,1.01722v4.26555a1.05537,1.05537,0,0,0,1.08946,1.01722A1.05537,1.05537,0,0,0-19.76,15.33665" style="fill:#8786a4"/></clipPath><clipPath id="clip-path-3"><path d="M16.54523,16.83935H2.13347a.29412.29412,0,0,1-.29412-.29412V2.13347a.29412.29412,0,0,1,.29412-.29412H2.7217a.29412.29412,0,0,1,.29412.29412V15.66288H16.54523a.29412.29412,0,0,1,.29412.29412v.58823A.29412.29412,0,0,1,16.54523,16.83935ZM14.44563,4.66741a1.73077,1.73077,0,1,1-1.73076-1.73077A1.73077,1.73077,0,0,1,14.44563,4.66741Zm-2.26017,5.64026A3.58371,3.58371,0,1,1,8.60175,6.724,3.58371,3.58371,0,0,1,12.18546,10.30767Z" style="fill:#8786a4"/></clipPath></defs><title>Untitled-2</title><path d="M-104.02154,9.31235a7.20793,7.20793,0,0,1-7.2,7.2,7.20442,7.20442,0,0,1-4.49775-1.58091l2.57766-2.57794a3.56215,3.56215,0,0,0,1.92009.55885,3.60405,3.60405,0,0,0,3.6-3.6,3.57366,3.57366,0,0,0-2.75625-3.49565V2.16635A7.24251,7.24251,0,0,1-104.02154,9.31235Zm-8.07187-7.14262V5.82345a3.57343,3.57343,0,0,0-2.72813,3.4889,3.56031,3.56031,0,0,0,.4891,1.80563l-2.58891,2.5889a7.20575,7.20575,0,0,1-1.50019-4.39453A7.24284,7.24284,0,0,1-112.09341,2.16973Z" style="fill:#8786a4;fill-rule:evenodd"/><g style="clip-path:url(#clip-path)"><rect x="-2288.22154" y="-758.66177" width="2400" height="3281" style="fill:#8786a4"/></g><g style="isolation:isolate"><path d="M-11.04424,16.35387a1.05537,1.05537,0,0,1-1.08947-1.01722V2.79091a1.05536,1.05536,0,0,1,1.08947-1.01722A1.05537,1.05537,0,0,1-9.95477,2.79091V15.33665a1.05538,1.05538,0,0,1-1.08947,1.01722m-3.8126-1.01722V6.93049A1.05536,1.05536,0,0,0-15.9463,5.91328a1.05525,1.05525,0,0,0-1.08947,1.01721v8.40616a1.05525,1.05525,0,0,0,1.08947,1.01722,1.05537,1.05537,0,0,0,1.08946-1.01722m-4.90315,0V11.0711a1.05536,1.05536,0,0,0-1.08947-1.01722,1.05536,1.05536,0,0,0-1.08946,1.01722v4.26555a1.05537,1.05537,0,0,0,1.08946,1.01722A1.05537,1.05537,0,0,0-19.76,15.33665" style="fill:#8786a4"/></g><g style="isolation:isolate"><path d="M16.54523,16.83935H2.13347a.29412.29412,0,0,1-.29412-.29412V2.13347a.29412.29412,0,0,1,.29412-.29412H2.7217a.29412.29412,0,0,1,.29412.29412V15.66288H16.54523a.29412.29412,0,0,1,.29412.29412v.58823A.29412.29412,0,0,1,16.54523,16.83935ZM14.44563,4.66741a1.73077,1.73077,0,1,1-1.73076-1.73077A1.73077,1.73077,0,0,1,14.44563,4.66741Zm-2.26017,5.64026A3.58371,3.58371,0,1,1,8.60175,6.724,3.58371,3.58371,0,0,1,12.18546,10.30767Z" style="fill:#8786a4"/></g></svg>