<svg id="Layer_1" data-name="Layer 1" xmlns="http://www.w3.org/2000/svg" xmlns:xlink="http://www.w3.org/1999/xlink" viewBox="0 0 18.6787 18.6787"><defs><clipPath id="clip-path"><path d="M-79.24326,9.31235a7.20793,7.20793,0,0,1-7.2,7.2A7.2044,7.2044,0,0,1-90.941,14.93144l2.57765-2.57794a3.56219,3.56219,0,0,0,1.9201.55885,3.60406,3.60406,0,0,0,3.6-3.6A3.57367,3.57367,0,0,0-85.59951,5.8167V2.16635A7.24251,7.24251,0,0,1-79.24326,9.31235Zm-8.07188-7.14262V5.82345a3.57342,3.57342,0,0,0-2.72812,3.4889,3.5603,3.5603,0,0,0,.48909,1.80563l-2.58891,2.5889a7.20574,7.20574,0,0,1-1.50018-4.39453A7.24283,7.24283,0,0,1-87.31514,2.16973Z" style="fill:#8786a4;clip-rule:evenodd"/></clipPath><clipPath id="clip-path-2"><path d="M-65.14438,10.40074h7.47316a6.95842,6.95842,0,0,1-6.93631,6.42789c-.18158,0-.35842-.01421-.53685-.02684a6.95684,6.95684,0,0,1-6.401-6.401c-.01263-.17843-.02684-.35527-.02684-.53685a6.95842,6.95842,0,0,1,6.42789-6.93631Zm8.54527-1.07211h-7.47316V1.85547c.17842-.01263.35526-.02684.53526-.02684a6.96474,6.96474,0,0,1,6.96474,6.96474C-56.57227,8.97337-56.58648,9.15021-56.59911,9.32863Z" style="fill:#8786a4"/></clipPath><clipPath id="clip-path-3"><path d="M-20.64059,13.69487l2.26466.65012a.54418.54418,0,0,0,.50287-.11135l2.22156-1.91446,1.8297,1.22482a.54126.54126,0,0,0,.66807-.05028l4.344-4.00133a.54311.54311,0,0,0,.16339-.518.54312.54312,0,0,0-.36692-.40049.54315.54315,0,0,0-.53029.1175l-4.03006,3.71038-1.81783-1.21764a.54166.54166,0,0,0-.6548.03952l-2.31208,1.98988-2.25317-.64652a.54418.54418,0,0,0-.4885.10056l-1.1088.89079V12.409l1.18531-.89079,1.90369.63575a.53874.53874,0,0,0,.57792-.15444l2.63607-2.97765,2.17415.93388a.53878.53878,0,0,0,.69287-.24425l2.89611-5.45243a.54918.54918,0,0,0-.22341-.73992.54344.54344,0,0,0-.41414-.039.5434.5434,0,0,0-.32039.26529l-2.66157,5.01063-2.07573-.89437a.54524.54524,0,0,0-.61959.14008l-2.658,3.00279-1.83185-.61061a.53877.53877,0,0,0-.49783.079l-.76.5747V3.27489a.54305.54305,0,0,0-.26735-.48195.54309.54309,0,0,0-.55113,0,.54309.54309,0,0,0-.26734.48195l.01113,12.64693a.5413.5413,0,0,0,.54561.53519H-9.82083a.53879.53879,0,0,0,.503-.255.53874.53874,0,0,0,0-.564.53878.53878,0,0,0-.503-.255H-22.19227l-.01652-.42743Z" style="fill:#8786a4"/></clipPath><clipPath id="clip-path-4"><path d="M13.734,16.35387a1.05537,1.05537,0,0,1-1.08947-1.01722V2.79091a1.092,1.092,0,0,1,2.17894,0V15.33665A1.05537,1.05537,0,0,1,13.734,16.35387m-3.8126-1.01722V6.93049a1.092,1.092,0,0,0-2.17893,0v8.40616a1.092,1.092,0,0,0,2.17893,0m-4.90315,0V11.0711a1.05536,1.05536,0,0,0-1.08947-1.01722A1.05536,1.05536,0,0,0,2.83935,11.0711v4.26555a1.05537,1.05537,0,0,0,1.08946,1.01722,1.05537,1.05537,0,0,0,1.08947-1.01722" style="fill:#8786a4"/></clipPath></defs><title>Untitled-2</title><path d="M-79.24326,9.31235a7.20793,7.20793,0,0,1-7.2,7.2A7.2044,7.2044,0,0,1-90.941,14.93144l2.57765-2.57794a3.56219,3.56219,0,0,0,1.9201.55885,3.60406,3.60406,0,0,0,3.6-3.6A3.57367,3.57367,0,0,0-85.59951,5.8167V2.16635A7.24251,7.24251,0,0,1-79.24326,9.31235Zm-8.07188-7.14262V5.82345a3.57342,3.57342,0,0,0-2.72812,3.4889,3.5603,3.5603,0,0,0,.48909,1.80563l-2.58891,2.5889a7.20574,7.20574,0,0,1-1.50018-4.39453A7.24283,7.24283,0,0,1-87.31514,2.16973Z" style="fill:#8786a4;fill-rule:evenodd"/><g style="clip-path:url(#clip-path)"><rect x="-2263.44326" y="-758.66177" width="2400" height="3281" style="fill:#8786a4"/></g><g style="isolation:isolate"><path d="M-65.14438,10.40074h7.47316a6.95842,6.95842,0,0,1-6.93631,6.42789c-.18158,0-.35842-.01421-.53685-.02684a6.95684,6.95684,0,0,1-6.401-6.401c-.01263-.17843-.02684-.35527-.02684-.53685a6.95842,6.95842,0,0,1,6.42789-6.93631Zm8.54527-1.07211h-7.47316V1.85547c.17842-.01263.35526-.02684.53526-.02684a6.96474,6.96474,0,0,1,6.96474,6.96474C-56.57227,8.97337-56.58648,9.15021-56.59911,9.32863Z" style="fill:#8786a4"/></g><g style="isolation:isolate"><path d="M-20.64059,13.69487l2.26466.65012a.54418.54418,0,0,0,.50287-.11135l2.22156-1.91446,1.8297,1.22482a.54126.54126,0,0,0,.66807-.05028l4.344-4.00133a.54311.54311,0,0,0,.16339-.518.54312.54312,0,0,0-.36692-.40049.54315.54315,0,0,0-.53029.1175l-4.03006,3.71038-1.81783-1.21764a.54166.54166,0,0,0-.6548.03952l-2.31208,1.98988-2.25317-.64652a.54418.54418,0,0,0-.4885.10056l-1.1088.89079V12.409l1.18531-.89079,1.90369.63575a.53874.53874,0,0,0,.57792-.15444l2.63607-2.97765,2.17415.93388a.53878.53878,0,0,0,.69287-.24425l2.89611-5.45243a.54918.54918,0,0,0-.22341-.73992.54344.54344,0,0,0-.41414-.039.5434.5434,0,0,0-.32039.26529l-2.66157,5.01063-2.07573-.89437a.54524.54524,0,0,0-.61959.14008l-2.658,3.00279-1.83185-.61061a.53877.53877,0,0,0-.49783.079l-.76.5747V3.27489a.54305.54305,0,0,0-.26735-.48195.54309.54309,0,0,0-.55113,0,.54309.54309,0,0,0-.26734.48195l.01113,12.64693a.5413.5413,0,0,0,.54561.53519H-9.82083a.53879.53879,0,0,0,.503-.255.53874.53874,0,0,0,0-.564.53878.53878,0,0,0-.503-.255H-22.19227l-.01652-.42743Z" style="fill:#8786a4"/></g><g style="isolation:isolate"><path d="M13.734,16.35387a1.05537,1.05537,0,0,1-1.08947-1.01722V2.79091a1.092,1.092,0,0,1,2.17894,0V15.33665A1.05537,1.05537,0,0,1,13.734,16.35387m-3.8126-1.01722V6.93049a1.092,1.092,0,0,0-2.17893,0v8.40616a1.092,1.092,0,0,0,2.17893,0m-4.90315,0V11.0711a1.05536,1.05536,0,0,0-1.08947-1.01722A1.05536,1.05536,0,0,0,2.83935,11.0711v4.26555a1.05537,1.05537,0,0,0,1.08946,1.01722,1.05537,1.05537,0,0,0,1.08947-1.01722" style="fill:#8786a4"/></g></svg>