<?xml version="1.0" encoding="utf-8"?>
<!-- Generator: Adobe Illustrator 23.0.4, SVG Export Plug-In . SVG Version: 6.00 Build 0)  -->
<svg version="1.1" id="Layer_1" xmlns="http://www.w3.org/2000/svg" xmlns:xlink="http://www.w3.org/1999/xlink" x="0px" y="0px"
	 viewBox="0 0 18.7 18.7" style="enable-background:new 0 0 18.7 18.7;" xml:space="preserve">
<style type="text/css">
	.st0{fill:#FFFFFF;}
</style>
<g>
	<path class="st0" d="M13.7,16.4c-0.6,0-1.1-0.4-1.1-1V2.8c0-0.6,0.6-1.1,1.2-1c0.5,0,1,0.5,1,1v12.5C14.8,15.9,14.3,16.4,13.7,16.4
		 M9.9,15.3V6.9c0-0.6-0.6-1.1-1.2-1c-0.5,0-1,0.5-1,1v8.4c0,0.6,0.6,1.1,1.2,1C9.5,16.3,9.9,15.9,9.9,15.3 M5,15.3v-4.3
		c0-0.6-0.5-1-1.1-1c-0.6,0-1.1,0.4-1.1,1v4.3c0,0.6,0.5,1,1.1,1C4.5,16.4,5,15.9,5,15.3"/>
</g>
</svg>
