<svg id="Layer_1" data-name="Layer 1" xmlns="http://www.w3.org/2000/svg" xmlns:xlink="http://www.w3.org/1999/xlink" viewBox="0 0 18.6787 18.6787"><defs><clipPath id="clip-path"><path d="M-35.23051,3.80251l-1.82682,1.82682-1.82682-1.82682,1.82682-1.82682Zm7.77423,4.156L-29.2831,9.78535l-1.82682-1.82682,1.82682-1.82682Zm-5.37888.426L-34.662,10.21134-36.4888,8.38452-34.662,6.55769ZM-37.7471,14.4587l-1.82682-1.82682,1.82682-1.82682,1.82682,1.82682Zm10.08494,2.36993H-42.07392a.29412.29412,0,0,1-.29412-.29412V2.12275a.29412.29412,0,0,1,.29412-.29412h.58823a.29412.29412,0,0,1,.29412.29412V15.65216h13.52941a.29412.29412,0,0,1,.29412.29412v.58823A.29412.29412,0,0,1-27.66216,16.82863Z" style="fill:#8786a4"/></clipPath><clipPath id="clip-path-2"><path d="M-5.18257,16.82863H-19.59432a.29412.29412,0,0,1-.29412-.29412V2.12275a.29412.29412,0,0,1,.29412-.29412h.58823a.29412.29412,0,0,1,.29412.29412V15.65216h13.5294a.29412.29412,0,0,1,.29413.29412v.58823A.29412.29412,0,0,1-5.18257,16.82863Z" style="fill:#8786a4"/></clipPath><clipPath id="clip-path-3"><path d="M-17.11027,3.99919H-5.68342V5.94142H-17.11027Zm0,3.653h6.63418V9.56761h-6.63418Zm0,3.62619h9.36252V13.19h-9.36252Z" style="fill:#8786a4"/></clipPath><clipPath id="clip-path-4"><path d="M16.53935,9.31235A7.197,7.197,0,0,1,4.8416,14.93144L7.41925,12.3535a3.56221,3.56221,0,0,0,1.9201.55885A3.59772,3.59772,0,0,0,10.1831,5.8167V2.16635A7.24251,7.24251,0,0,1,16.53935,9.31235ZM8.46747,2.16973V5.82345a3.5905,3.5905,0,0,0-2.239,5.29453l-2.5889,2.5889A7.19268,7.19268,0,0,1,8.46747,2.16973Z" style="fill:#8786a4;clip-rule:evenodd"/></clipPath><clipPath id="clip-path-5"><rect x="-2167.66065" y="-758.66177" width="2400" height="3281" style="fill:#8786a4"/></clipPath><clipPath id="clip-path-6"><path d="M30.63823,10.40074h7.47316a6.95842,6.95842,0,0,1-6.93631,6.42789c-.18158,0-.35842-.01421-.53685-.02684a6.95684,6.95684,0,0,1-6.40105-6.401c-.01263-.17843-.02684-.35527-.02684-.53685a6.95842,6.95842,0,0,1,6.42789-6.93631ZM39.1835,9.32863H31.71034V1.85547c.17842-.01263.35526-.02684.53526-.02684a6.96474,6.96474,0,0,1,6.96474,6.96474C39.21034,8.97337,39.19613,9.15021,39.1835,9.32863Z" style="fill:#8786a4"/></clipPath><clipPath id="clip-path-7"><path d="M61.72419,1V3.26667h.83754c-.23035,4.94643-1.1033,8.03873-2.53754,9.01453v-.51453H57.75753v.3621a13.57905,13.57905,0,0,1-2.36244-3.03,12.72534,12.72534,0,0,0-2.1709-2.80443V4.96667H50.95753v1.1169c-1.53312.83753-2.46557,3.75926-3.08862,9.64976h-.87805V18h2.26667V15.73333h-.81884c.55307-5.19548,1.34159-8.02,2.51884-8.97v.47h2.26666V7.067a17.23189,17.23189,0,0,1,1.69575,2.34061,11.47572,11.47572,0,0,0,2.83759,3.4153v1.2104h2.26666V12.9357c1.80625-.88768,2.85034-4.1378,3.10477-9.669h.8619V1Z" style="fill:#8786a4"/></clipPath></defs><title>Untitled-2</title><g style="isolation:isolate"><path d="M-35.23051,3.80251l-1.82682,1.82682-1.82682-1.82682,1.82682-1.82682Zm7.77423,4.156L-29.2831,9.78535l-1.82682-1.82682,1.82682-1.82682Zm-5.37888.426L-34.662,10.21134-36.4888,8.38452-34.662,6.55769ZM-37.7471,14.4587l-1.82682-1.82682,1.82682-1.82682,1.82682,1.82682Zm10.08494,2.36993H-42.07392a.29412.29412,0,0,1-.29412-.29412V2.12275a.29412.29412,0,0,1,.29412-.29412h.58823a.29412.29412,0,0,1,.29412.29412V15.65216h13.52941a.29412.29412,0,0,1,.29412.29412v.58823A.29412.29412,0,0,1-27.66216,16.82863Z" style="fill:#8786a4"/></g><g style="isolation:isolate"><path d="M-5.18257,16.82863H-19.59432a.29412.29412,0,0,1-.29412-.29412V2.12275a.29412.29412,0,0,1,.29412-.29412h.58823a.29412.29412,0,0,1,.29412.29412V15.65216h13.5294a.29412.29412,0,0,1,.29413.29412v.58823A.29412.29412,0,0,1-5.18257,16.82863Z" style="fill:#8786a4"/></g><g style="isolation:isolate"><path d="M-17.11027,3.99919H-5.68342V5.94142H-17.11027Zm0,3.653h6.63418V9.56761h-6.63418Zm0,3.62619h9.36252V13.19h-9.36252Z" style="fill:#8786a4"/></g><path d="M16.53935,9.31235A7.197,7.197,0,0,1,4.8416,14.93144L7.41925,12.3535a3.56221,3.56221,0,0,0,1.9201.55885A3.59772,3.59772,0,0,0,10.1831,5.8167V2.16635A7.24251,7.24251,0,0,1,16.53935,9.31235ZM8.46747,2.16973V5.82345a3.5905,3.5905,0,0,0-2.239,5.29453l-2.5889,2.5889A7.19268,7.19268,0,0,1,8.46747,2.16973Z" style="fill:#8786a4;fill-rule:evenodd"/><g style="clip-path:url(#clip-path-4)"><rect x="-2167.66065" y="-758.66177" width="2400" height="3281" style="fill:#8786a4"/><g style="clip-path:url(#clip-path-5)"><rect x="-2.86065" y="-2.83365" width="24.4" height="24.346" style="fill:#8786a4"/></g></g><g style="isolation:isolate"><path d="M30.63823,10.40074h7.47316a6.95842,6.95842,0,0,1-6.93631,6.42789c-.18158,0-.35842-.01421-.53685-.02684a6.95684,6.95684,0,0,1-6.40105-6.401c-.01263-.17843-.02684-.35527-.02684-.53685a6.95842,6.95842,0,0,1,6.42789-6.93631ZM39.1835,9.32863H31.71034V1.85547c.17842-.01263.35526-.02684.53526-.02684a6.96474,6.96474,0,0,1,6.96474,6.96474C39.21034,8.97337,39.19613,9.15021,39.1835,9.32863Z" style="fill:#8786a4"/></g><g style="isolation:isolate"><path d="M61.72419,1V3.26667h.83754c-.23035,4.94643-1.1033,8.03873-2.53754,9.01453v-.51453H57.75753v.3621a13.57905,13.57905,0,0,1-2.36244-3.03,12.72534,12.72534,0,0,0-2.1709-2.80443V4.96667H50.95753v1.1169c-1.53312.83753-2.46557,3.75926-3.08862,9.64976h-.87805V18h2.26667V15.73333h-.81884c.55307-5.19548,1.34159-8.02,2.51884-8.97v.47h2.26666V7.067a17.23189,17.23189,0,0,1,1.69575,2.34061,11.47572,11.47572,0,0,0,2.83759,3.4153v1.2104h2.26666V12.9357c1.80625-.88768,2.85034-4.1378,3.10477-9.669h.8619V1Z" style="fill:#8786a4"/></g></svg>