<svg id="Layer_1" data-name="Layer 1" xmlns="http://www.w3.org/2000/svg" xmlns:xlink="http://www.w3.org/1999/xlink" viewBox="0 0 18.6787 18.6787"><defs><clipPath id="clip-path"><path d="M16.53935,9.31235A7.197,7.197,0,0,1,4.8416,14.93144L7.41925,12.3535A3.59688,3.59688,0,1,0,10.1831,5.8167V2.16635A7.24251,7.24251,0,0,1,16.53935,9.31235ZM8.46747,2.16973V5.82345a3.59049,3.59049,0,0,0-2.239,5.29453l-2.5889,2.5889A7.19268,7.19268,0,0,1,8.46747,2.16973Z" style="fill:none"/></clipPath><clipPath id="clip-path-2"><rect x="-2167.66064" y="-758.66174" width="2400" height="3281.00012" style="fill:none"/></clipPath></defs><title>Dounut_w</title><path d="M16.53935,9.31235A7.197,7.197,0,0,1,4.8416,14.93144L7.41925,12.3535A3.59688,3.59688,0,1,0,10.1831,5.8167V2.16635A7.24251,7.24251,0,0,1,16.53935,9.31235ZM8.46747,2.16973V5.82345a3.59049,3.59049,0,0,0-2.239,5.29453l-2.5889,2.5889A7.19268,7.19268,0,0,1,8.46747,2.16973Z" style="fill:#8786a4;fill-rule:evenodd"/><g style="clip-path:url(#clip-path)"><rect x="-2167.66064" y="-758.66174" width="2400" height="3281.00012" style="fill:#8786a4"/><g style="clip-path:url(#clip-path-2)"><rect x="-2.86065" y="-2.83365" width="24.4" height="24.346" style="fill:#fff"/></g></g></svg>