<?xml version="1.0" encoding="UTF-8"?>
<svg width="73px" height="86px" viewBox="0 0 73 86" version="1.1" xmlns="http://www.w3.org/2000/svg" xmlns:xlink="http://www.w3.org/1999/xlink">
    <!-- Generator: Sketch 55.2 (78181) - https://sketchapp.com -->
    <title>Chart-11</title>
    <desc>Created with Sketch.</desc>
    <defs>
        <filter x="-6.8%" y="-4.8%" width="113.5%" height="109.6%" filterUnits="objectBoundingBox" id="filter-1">
            <feOffset dx="0" dy="42" in="SourceAlpha" result="shadowOffsetOuter1"></feOffset>
            <feGaussianBlur stdDeviation="17" in="shadowOffsetOuter1" result="shadowBlurOuter1"></feGaussianBlur>
            <feColorMatrix values="0 0 0 0 0   0 0 0 0 0   0 0 0 0 0  0 0 0 0.0632921766 0" type="matrix" in="shadowBlurOuter1" result="shadowMatrixOuter1"></feColorMatrix>
            <feMerge>
                <feMergeNode in="shadowMatrixOuter1"></feMergeNode>
                <feMergeNode in="SourceGraphic"></feMergeNode>
            </feMerge>
        </filter>
        <path d="M2.74113818,10.7528456 L4.7915447,11.3414634 C4.95060906,11.3863518 5.12158393,11.3484931 5.24682926,11.2406504 L7.25821138,9.50731709 L8.91479676,10.6162602 C9.10272047,10.7426772 9.35279175,10.7238547 9.51967481,10.5707317 L13.452683,6.94796748 C13.5822281,6.8292856 13.6386167,6.65050752 13.6006077,6.47897722 C13.5625987,6.30744692 13.4359666,6.16922394 13.2684125,6.11637555 C13.1008584,6.06352716 12.9178378,6.1040823 12.7882927,6.22276422 L9.13951221,9.58211384 L7.49365854,8.47967481 C7.31047099,8.35697274 7.06791747,8.37160845 6.90081301,8.51544716 L4.80747966,10.3170732 L2.76747965,9.73170733 C2.61400411,9.68873727 2.44922287,9.72266282 2.32520322,9.82276425 L1.32130078,10.6292683 L1.32130078,9.5886179 L2.39447152,8.78211383 L4.11804876,9.35772359 C4.30469925,9.42111559 4.51115852,9.36594003 4.6413008,9.21788619 L7.02796748,6.52195122 L8.99642278,7.36747968 C9.23115788,7.46986111 9.50509927,7.37329287 9.62373985,7.14634146 L12.2458537,2.20975607 C12.3735688,1.96876599 12.2833215,1.66987611 12.0435773,1.53983736 C11.9282205,1.47880741 11.7933432,1.46610663 11.6686215,1.50452947 C11.5438997,1.54295232 11.4395518,1.62935084 11.3785366,1.74471541 L8.9687805,6.28130081 L7.08943089,5.47154471 C6.89457733,5.38928145 6.66896914,5.44028852 6.52845528,5.59837397 L4.1219512,8.31707318 L2.46341461,7.76422765 C2.31059101,7.71199019 2.14181912,7.73877937 2.0126829,7.83577236 L1.32455281,8.35609757 L1.32455281,1.31869915 C1.32914773,1.14007274 1.23647777,0.973013092 1.08250317,0.882347056 C0.928528567,0.79168102 0.737487616,0.79168102 0.583513012,0.882347056 C0.429538408,0.973013092 0.336868458,1.14007274 0.341463373,1.31869915 L0.351544674,12.7691057 C0.354582302,13.0391365 0.575489234,13.255826 0.845528417,13.2536586 L12.5372358,13.2536586 C12.7204234,13.2686533 12.8964884,13.1794063 12.9926874,13.0227912 C13.0888863,12.8661761 13.0888863,12.6687833 12.9926874,12.5121682 C12.8964884,12.3555531 12.7204234,12.2663061 12.5372358,12.2813008 L1.33626013,12.2813008 L1.32130078,11.894309 L2.74113818,10.7528456 Z" id="path-2"></path>
    </defs>
    <g id="Page-1" stroke="none" stroke-width="1" fill="none" fill-rule="evenodd">
        <g id="Investment-portfolio-Copy-2" transform="translate(-1081.000000, -761.000000)">
            <g id="Group-3" filter="url(#filter-1)" transform="translate(119.000000, 78.000000)">
                <g id="Group-2-Copy-3" transform="translate(60.000000, 649.000000)">
                    <g id="Group-15" transform="translate(890.000000, 29.000000)">
                        <g id="Group-14" transform="translate(38.000000, 0.000000)">
                            <g id="Chart-11" transform="translate(5.000000, 5.000000)">
                                <mask id="mask-3" fill="white">
                                    <use xlink:href="#path-2"></use>
                                </mask>
                                <use fill="#8786A4" fill-rule="nonzero" xlink:href="#path-2"></use>
                            </g>
                        </g>
                    </g>
                </g>
            </g>
        </g>
    </g>
</svg>