<?xml version="1.0" encoding="UTF-8"?>
<svg width="72px" height="85px" viewBox="0 0 72 85" version="1.1" xmlns="http://www.w3.org/2000/svg" xmlns:xlink="http://www.w3.org/1999/xlink">
    <!-- Generator: Sketch 55.2 (78181) - https://sketchapp.com -->
    <title>graph-bar</title>
    <desc>Created with Sketch.</desc>
    <defs>
        <filter x="-6.8%" y="-4.8%" width="113.5%" height="109.6%" filterUnits="objectBoundingBox" id="filter-1">
            <feOffset dx="0" dy="42" in="SourceAlpha" result="shadowOffsetOuter1"></feOffset>
            <feGaussianBlur stdDeviation="17" in="shadowOffsetOuter1" result="shadowBlurOuter1"></feGaussianBlur>
            <feColorMatrix values="0 0 0 0 0   0 0 0 0 0   0 0 0 0 0  0 0 0 0.0632921766 0" type="matrix" in="shadowBlurOuter1" result="shadowMatrixOuter1"></feColorMatrix>
            <feMerge>
                <feMergeNode in="shadowMatrixOuter1"></feMergeNode>
                <feMergeNode in="SourceGraphic"></feMergeNode>
            </feMerge>
        </filter>
        <path d="M8.91530128,17.921946 L8.91530128,14.172494 C8.91530128,13.6787764 8.4864334,13.2783481 7.95765064,13.2783481 C7.42886788,13.2783481 7,13.6787764 7,14.172494 L7,17.921946 C7,18.4156636 7.42886788,18.816092 7.95765064,18.816092 C8.4864334,18.816092 8.91530128,18.4156636 8.91530128,17.921946 M13.225208,17.921946 L13.225208,10.5328729 C13.225208,10.0391553 12.7963401,9.63872696 12.2675573,9.63872696 C11.738615,9.63872696 11.3099067,10.0391553 11.3099067,10.5328729 L11.3099067,17.921946 C11.3099067,18.4156636 11.738615,18.816092 12.2675573,18.816092 C12.7963401,18.816092 13.225208,18.4156636 13.225208,17.921946 M16.5765064,18.816092 C16.0477236,18.816092 15.6188557,18.4156636 15.6188557,17.921946 L15.6188557,6.89414595 C15.6188557,6.40042836 16.0477236,6 16.5765064,6 C17.1052891,6 17.534157,6.40042836 17.534157,6.89414595 L17.534157,17.921946 C17.534157,18.4156636 17.1052891,18.816092 16.5765064,18.816092" id="path-2"></path>
    </defs>
    <g id="Page-1" stroke="none" stroke-width="1" fill="none" fill-rule="evenodd">
        <g id="Investment-portfolio-Copy-2" transform="translate(-1047.000000, -762.000000)">
            <g id="Group-3" filter="url(#filter-1)" transform="translate(119.000000, 78.000000)">
                <g id="Group-2-Copy-3" transform="translate(60.000000, 649.000000)">
                    <g id="Group-15" transform="translate(890.000000, 29.000000)">
                        <g id="Group-14-Copy">
                            <mask id="mask-3" fill="white">
                                <use xlink:href="#path-2"></use>
                            </mask>
                            <use id="graph-bar" fill="#8786A4" fill-rule="nonzero" xlink:href="#path-2"></use>
                        </g>
                    </g>
                </g>
            </g>
        </g>
    </g>
</svg>