<svg id="Layer_1" data-name="Layer 1" xmlns="http://www.w3.org/2000/svg" xmlns:xlink="http://www.w3.org/1999/xlink" viewBox="0 0 18.6787 18.6787"><defs><clipPath id="clip-path"><path d="M-89.81365,3.55787h14.37618V6.0014H-89.81365Zm0,4.59586h8.3465v2.4098h-8.3465Zm0,4.56213h11.779v2.405h-11.779Z" style="fill:#8786a4"/></clipPath><clipPath id="clip-path-2"><path d="M-53.99445,9.31235a7.20793,7.20793,0,0,1-7.2,7.2,7.20442,7.20442,0,0,1-4.49775-1.58091l2.57766-2.57794a3.56215,3.56215,0,0,0,1.92009.55885,3.60406,3.60406,0,0,0,3.6-3.6A3.57366,3.57366,0,0,0-60.3507,5.8167V2.16635A7.24251,7.24251,0,0,1-53.99445,9.31235Zm-8.07187-7.14262V5.82345a3.57343,3.57343,0,0,0-2.72813,3.4889,3.56031,3.56031,0,0,0,.4891,1.80563l-2.58891,2.5889a7.20575,7.20575,0,0,1-1.50019-4.39453A7.24284,7.24284,0,0,1-62.06632,2.16973Z" style="fill:#8786a4;clip-rule:evenodd"/></clipPath><clipPath id="clip-path-3"><path d="M-39.89556,10.40074h7.47316a6.95842,6.95842,0,0,1-6.93631,6.42789c-.18158,0-.35842-.01421-.53685-.02684a6.95684,6.95684,0,0,1-6.401-6.401c-.01263-.17843-.02684-.35527-.02684-.53685a6.95842,6.95842,0,0,1,6.42789-6.93631Zm8.54527-1.07211h-7.47316V1.85547c.17842-.01263.35526-.02684.53526-.02684a6.96474,6.96474,0,0,1,6.96474,6.96474C-31.32345,8.97337-31.33766,9.15021-31.35029,9.32863Z" style="fill:#8786a4"/></clipPath><clipPath id="clip-path-4"><path d="M38.98285,16.35387a1.05537,1.05537,0,0,1-1.08947-1.01722V2.79091a1.092,1.092,0,0,1,2.17894,0V15.33665a1.05538,1.05538,0,0,1-1.08947,1.01722m-3.8126-1.01722V6.93049a1.092,1.092,0,0,0-2.17893,0v8.40616a1.092,1.092,0,0,0,2.17893,0m-4.90315,0V11.0711a1.092,1.092,0,0,0-2.17893,0v4.26555a1.092,1.092,0,0,0,2.17893,0" style="fill:#8786a4"/></clipPath><clipPath id="clip-path-5"><path d="M66.57232,16.83935H52.16056a.29412.29412,0,0,1-.29412-.29412V2.13347a.29412.29412,0,0,1,.29412-.29412h.58823a.29412.29412,0,0,1,.29412.29412V15.66288H66.57232a.29412.29412,0,0,1,.29412.29412v.58823A.29412.29412,0,0,1,66.57232,16.83935ZM64.47272,4.66741A1.73077,1.73077,0,1,1,62.742,2.93664,1.73077,1.73077,0,0,1,64.47272,4.66741Zm-2.26018,5.64026a3.5837,3.5837,0,1,1-3.5837-3.5837A3.5837,3.5837,0,0,1,62.21254,10.30767Z" style="fill:#8786a4"/></clipPath></defs><title>Untitled-2</title><g style="isolation:isolate"><path d="M-89.81365,3.55787h14.37618V6.0014H-89.81365Zm0,4.59586h8.3465v2.4098h-8.3465Zm0,4.56213h11.779v2.405h-11.779Z" style="fill:#8786a4"/></g><path d="M-53.99445,9.31235a7.20793,7.20793,0,0,1-7.2,7.2,7.20442,7.20442,0,0,1-4.49775-1.58091l2.57766-2.57794a3.56215,3.56215,0,0,0,1.92009.55885,3.60406,3.60406,0,0,0,3.6-3.6A3.57366,3.57366,0,0,0-60.3507,5.8167V2.16635A7.24251,7.24251,0,0,1-53.99445,9.31235Zm-8.07187-7.14262V5.82345a3.57343,3.57343,0,0,0-2.72813,3.4889,3.56031,3.56031,0,0,0,.4891,1.80563l-2.58891,2.5889a7.20575,7.20575,0,0,1-1.50019-4.39453A7.24284,7.24284,0,0,1-62.06632,2.16973Z" style="fill:#8786a4;fill-rule:evenodd"/><g style="clip-path:url(#clip-path-2)"><rect x="-2238.19445" y="-758.66177" width="2400" height="3281" style="fill:#8786a4"/></g><g style="isolation:isolate"><path d="M-39.89556,10.40074h7.47316a6.95842,6.95842,0,0,1-6.93631,6.42789c-.18158,0-.35842-.01421-.53685-.02684a6.95684,6.95684,0,0,1-6.401-6.401c-.01263-.17843-.02684-.35527-.02684-.53685a6.95842,6.95842,0,0,1,6.42789-6.93631Zm8.54527-1.07211h-7.47316V1.85547c.17842-.01263.35526-.02684.53526-.02684a6.96474,6.96474,0,0,1,6.96474,6.96474C-31.32345,8.97337-31.33766,9.15021-31.35029,9.32863Z" style="fill:#8786a4"/></g><g style="isolation:isolate"><path d="M38.98285,16.35387a1.05537,1.05537,0,0,1-1.08947-1.01722V2.79091a1.092,1.092,0,0,1,2.17894,0V15.33665a1.05538,1.05538,0,0,1-1.08947,1.01722m-3.8126-1.01722V6.93049a1.092,1.092,0,0,0-2.17893,0v8.40616a1.092,1.092,0,0,0,2.17893,0m-4.90315,0V11.0711a1.092,1.092,0,0,0-2.17893,0v4.26555a1.092,1.092,0,0,0,2.17893,0" style="fill:#8786a4"/></g><path d="M17.58866,4.624a1.74491,1.74491,0,0,0-1.57324-.999h-.00683a1.75057,1.75057,0,0,0-1.61817,1.10449,1.72707,1.72707,0,0,0,.23438,1.6831L12.0496,11.145a1.69049,1.69049,0,0,0-.874.15771l-2.374-2.03369a1.74125,1.74125,0,1,0-3.22363.29L3.13847,12.56593a1.75449,1.75449,0,1,0,1.10742.90479l2.43945-3.00781a1.72447,1.72447,0,0,0,1.18457-.1045l2.376,2.03516a1.77106,1.77106,0,0,0-.07324.48584,1.74141,1.74141,0,1,0,3.12988-1.04492l2.57715-4.73682a1.73845,1.73845,0,0,0,1.709-2.47363Z" style="fill:#8786a4"/><g style="isolation:isolate"><path d="M66.57232,16.83935H52.16056a.29412.29412,0,0,1-.29412-.29412V2.13347a.29412.29412,0,0,1,.29412-.29412h.58823a.29412.29412,0,0,1,.29412.29412V15.66288H66.57232a.29412.29412,0,0,1,.29412.29412v.58823A.29412.29412,0,0,1,66.57232,16.83935ZM64.47272,4.66741A1.73077,1.73077,0,1,1,62.742,2.93664,1.73077,1.73077,0,0,1,64.47272,4.66741Zm-2.26018,5.64026a3.5837,3.5837,0,1,1-3.5837-3.5837A3.5837,3.5837,0,0,1,62.21254,10.30767Z" style="fill:#8786a4"/></g></svg>