<?xml version="1.0" encoding="utf-8"?>
<!-- Generator: Adobe Illustrator 23.0.4, SVG Export Plug-In . SVG Version: 6.00 Build 0)  -->
<svg version="1.1" id="Layer_1" xmlns="http://www.w3.org/2000/svg" xmlns:xlink="http://www.w3.org/1999/xlink" x="0px" y="0px"
	 viewBox="0 0 18.7 18.7" style="enable-background:new 0 0 18.7 18.7;" xml:space="preserve">
<style type="text/css">
	.st0{fill:#FFFFFF;}
</style>
<path class="st0" d="M17.6,4.6c-0.3-0.6-0.9-1-1.6-1h0c-0.7,0-1.4,0.4-1.6,1.1c-0.2,0.6-0.1,1.2,0.2,1.7L12,11.1
	c-0.3,0-0.6,0-0.9,0.2l-2.4-2c0.3-0.9-0.3-1.9-1.2-2.2C6.7,6.8,5.7,7.4,5.5,8.3C5.3,8.7,5.4,9.2,5.6,9.6l-2.4,3
	c-0.9-0.3-1.9,0.3-2.2,1.2s0.3,1.9,1.2,2.2c0.9,0.3,1.9-0.3,2.2-1.2c0.1-0.4,0.1-0.9-0.1-1.2l2.4-3c0.4,0.1,0.8,0.1,1.2-0.1l2.4,2
	c0,0.2-0.1,0.3-0.1,0.5c0,1,0.8,1.7,1.7,1.7s1.7-0.8,1.7-1.7c0-0.4-0.1-0.8-0.4-1.1l2.6-4.7c1,0.1,1.8-0.6,1.9-1.6
	C17.8,5.2,17.7,4.9,17.6,4.6L17.6,4.6z"/>
</svg>
