<?xml version="1.0" encoding="UTF-8"?>
<svg width="96px" height="71px" viewBox="0 0 96 71" version="1.1" xmlns="http://www.w3.org/2000/svg" xmlns:xlink="http://www.w3.org/1999/xlink">
    <!-- Generator: Sketch 55.2 (78181) - https://sketchapp.com -->
    <title>Group 75</title>
    <desc>Created with Sketch.</desc>
    <defs>
        <polygon id="path-1" points="0.9902 0.1155 23.32 0.1155 23.32 4.76478023 0.9902 4.76478023"></polygon>
    </defs>
    <g id="Page-1" stroke="none" stroke-width="1" fill="none" fill-rule="evenodd">
        <g id="Group-75" transform="translate(0.000000, -1.000000)">
            <polygon id="Fill-1" fill="#FB6CB3" points="21.11 71.3067 26.364 71.3067 26.364 64.8217 21.11 64.8217"></polygon>
            <polygon id="Fill-2" fill="#FB6CB3" points="45.82 71.3067 51.063 71.3067 51.063 64.8217 45.82 64.8217"></polygon>
            <g id="Group-74" transform="translate(0.000000, 0.306700)">
                <path d="M8.0224,38.5732 L2.3224,38.5732 C1.0434,38.5732 0.0004,39.6172 0.0004,40.8952 L0.0004,49.3752 C0.0004,50.6532 1.0434,51.6962 2.3224,51.6962 L8.0224,51.6962 C9.3004,51.6962 10.3444,50.6532 10.3444,49.3752 L10.3444,40.8952 C10.3444,39.6172 9.3004,38.5732 8.0224,38.5732" id="Fill-3" fill="#FB6CB3"></path>
                <path d="M35.5468,19.8916 C44.4718,19.8916 52.5048,22.9876 58.0878,27.9246 L63.8218,28.7576 C64.6908,28.8866 65.3118,29.7196 65.1828,30.5866 C65.0538,31.4666 64.2328,32.0766 63.3538,31.9476 L61.5818,31.6896 C64.4198,35.4306 66.0508,39.8166 66.0508,44.5196 C66.0508,58.1236 52.3878,69.1466 35.5468,69.1466 C18.7058,69.1466 5.0548,58.1236 5.0548,44.5196 C5.0548,30.9146 18.7058,19.8916 35.5468,19.8916" id="Fill-5" fill="#F05F8A"></path>
                <path d="M17.1933,29.6611 L17.1933,29.6611 C18.4133,29.1331 18.9873,27.7021 18.4483,26.4821 L16.0903,21.0171 C15.5503,19.7981 14.1203,19.2351 12.9003,19.7631 C11.6813,20.2901 11.1063,21.7321 11.6463,22.9521 L14.0033,28.4051 C14.5433,29.6261 15.9733,30.2001 17.1933,29.6611" id="Fill-7" fill="#F05F8A"></path>
                <path d="M11.5517,21.2871 C11.3877,21.8151 11.3997,22.4011 11.6467,22.9521 L14.0027,28.4051 C14.3317,29.1441 14.9767,29.6491 15.7157,29.8021 C15.8677,29.2731 15.8567,28.6861 15.6217,28.1361 L13.2527,22.6831 C12.9237,21.9441 12.2797,21.4511 11.5517,21.2871" id="Fill-9" fill="#A33E5D"></path>
                <path d="M13.0068,38.1045 C14.4958,38.1045 15.7038,36.8965 15.7038,35.4075 C15.7038,33.9175 14.4958,32.7095 13.0068,32.7095 C11.5168,32.7095 10.2968,33.9175 10.2968,35.4075 C10.2968,36.8965 11.5168,38.1045 13.0068,38.1045" id="Fill-11" fill="#A33E5D"></path>
                <path d="M28.1816,24.7353 C33.3766,22.6353 38.7246,22.5893 44.0616,24.7353 C45.3166,25.9893 45.3166,25.7553 44.0616,27.0103 C38.7716,25.1333 33.4706,25.3333 28.1816,27.0103 C26.9146,25.7553 26.9266,25.9893 28.1816,24.7353" id="Fill-13" fill="#A33E5D"></path>
                <path d="M35.7812,20.4892 C41.2342,20.4892 45.6792,16.0452 45.6792,10.5922 C45.6792,5.1382 41.2342,0.6932 35.7812,0.6932 C30.3282,0.6932 25.8842,5.1382 25.8842,10.5922 C25.8842,16.0452 30.3282,20.4892 35.7812,20.4892" id="Fill-15" fill="#FFCF00"></path>
                <path d="M35.7812,18.7422 C40.2732,18.7422 43.9312,15.0832 43.9312,10.5922 C43.9312,6.0992 40.2732,2.4412 35.7812,2.4412 C31.2902,2.4412 27.6312,6.0992 27.6312,10.5922 C27.6312,15.0832 31.2902,18.7422 35.7812,18.7422" id="Fill-17" fill="#FFFFFF"></path>
                <path d="M35.7812,18.2842 C40.0142,18.2842 43.4632,14.8252 43.4632,10.5922 C43.4632,6.3572 40.0142,2.9102 35.7812,2.9102 C31.5482,2.9102 28.0882,6.3572 28.0882,10.5922 C28.0882,14.8252 31.5482,18.2842 35.7812,18.2842" id="Fill-19" fill="#FFCF00"></path>
                <path d="M34.9375,15.0244 L36.7085,15.0244 L36.7085,14.3084 C37.6935,13.9574 38.3965,13.0894 38.3965,12.0574 C38.3965,11.4834 38.1855,10.9664 37.8225,10.5454 C37.3525,9.9814 36.6025,9.6184 35.7695,9.6184 C35.4175,9.6184 35.1365,9.3484 35.1365,9.0314 C35.1365,8.7044 35.4175,8.4334 35.7695,8.4334 C36.1215,8.4334 36.4155,8.7044 36.4155,9.0314 L38.3965,9.0314 C38.3965,8.0004 37.6935,7.1204 36.7085,6.7804 L36.7085,5.9594 L34.9375,5.9594 L34.9375,6.7454 C33.8935,7.0614 33.1545,7.9764 33.1545,9.0444 C33.1545,10.3794 34.3155,11.4484 35.7695,11.4484 C36.1215,11.4484 36.4155,11.7174 36.4155,12.0344 C36.4155,12.3624 36.1215,12.6204 35.7695,12.6204 C35.4175,12.6204 35.1365,12.3624 35.1365,12.0344 L33.1425,12.0344 C33.1425,13.1364 33.8935,14.0394 34.9375,14.3444 L34.9375,15.0244 Z" id="Fill-21" fill="#FFFFFF"></path>
                <path d="M81.7041,65.8384 C83.2281,65.8384 92.8691,65.8264 92.8691,64.2324 L92.8691,61.9924 C92.8691,61.7694 92.7871,61.5694 92.6701,61.4184 C92.4931,61.1944 91.1801,61.3824 90.8871,61.3824 L73.0371,61.2064 C72.7321,61.1944 70.8681,61.2184 70.7041,61.4644 C70.5981,61.6054 70.5391,61.7934 70.5391,61.9924 L70.5391,64.2324 C70.5391,66.1194 80.0981,65.8384 81.7041,65.8384" id="Fill-23" fill="#FFB438"></path>
                <path d="M81.7158,62.5776 C87.7788,62.5776 92.7168,62.0976 92.7168,61.4996 C92.7168,60.9016 87.7788,60.4206 81.7158,60.4206 C75.6638,60.4206 70.7158,60.9016 70.7158,61.4996 C70.7158,62.0976 75.6638,62.5776 81.7158,62.5776" id="Fill-25" fill="#FCD471"></path>
                <path d="M81.7158,60.6899 C76.7318,60.6899 72.5218,61.0069 71.1728,61.4529 C73.3658,61.1479 77.2718,60.9489 81.7158,60.9489 C86.1608,60.9489 90.0668,61.1479 92.2588,61.4529 C90.9098,61.0069 86.6998,60.6899 81.7158,60.6899" id="Fill-27" fill="#FFB438"></path>
                <path d="M81.7041,61.8979 C83.2281,61.8979 92.8691,61.8859 92.8691,60.2919 L92.8691,58.0509 C92.8691,57.8399 92.7871,57.6409 92.6701,57.4769 C92.4931,57.2649 91.1801,57.4419 90.8871,57.4419 L73.0371,57.2649 C72.7321,57.2649 70.8681,57.2769 70.7041,57.5239 C70.5981,57.6759 70.5391,57.8639 70.5391,58.0509 L70.5391,60.2919 C70.5391,62.1799 80.0981,61.8979 81.7041,61.8979" id="Fill-29" fill="#FFB438"></path>
                <path d="M81.7158,58.6377 C87.7788,58.6377 92.7168,58.1567 92.7168,57.5597 C92.7168,56.9717 87.7788,56.4917 81.7158,56.4917 C75.6638,56.4917 70.7158,56.9717 70.7158,57.5597 C70.7158,58.1567 75.6638,58.6377 81.7158,58.6377" id="Fill-31" fill="#FCD471"></path>
                <path d="M81.7158,56.7495 C76.7318,56.7495 72.5218,57.0775 71.1728,57.5235 C73.3658,57.2185 77.2718,57.0075 81.7158,57.0075 C86.1608,57.0075 90.0668,57.2185 92.2588,57.5235 C90.9098,57.0775 86.6998,56.7495 81.7158,56.7495" id="Fill-33" fill="#FFB438"></path>
                <path d="M81.7041,57.9575 C83.2281,57.9575 92.8691,57.9575 92.8691,56.3515 L92.8691,54.1225 C92.8691,53.9005 92.7871,53.7015 92.6701,53.5365 C92.4931,53.3255 91.1801,53.5135 90.8871,53.5015 L73.0371,53.3255 C72.7321,53.3255 70.8681,53.3485 70.7041,53.5835 C70.5981,53.7355 70.5391,53.9235 70.5391,54.1225 L70.5391,56.3515 C70.5391,58.2505 80.0981,57.9575 81.7041,57.9575" id="Fill-35" fill="#FFB438"></path>
                <path d="M81.7158,54.709 C87.7788,54.709 92.7168,54.217 92.7168,53.63 C92.7168,53.032 87.7788,52.551 81.7158,52.551 C75.6638,52.551 70.7158,53.032 70.7158,53.63 C70.7158,54.217 75.6638,54.709 81.7158,54.709" id="Fill-37" fill="#FCD471"></path>
                <path d="M81.7158,52.8096 C76.7318,52.8096 72.5218,53.1376 71.1728,53.5836 C73.3658,53.2776 77.2718,53.0786 81.7158,53.0786 C86.1608,53.0786 90.0668,53.2776 92.2588,53.5836 C90.9098,53.1376 86.6998,52.8096 81.7158,52.8096" id="Fill-39" fill="#FFB438"></path>
                <path d="M81.7041,54.0293 C83.2281,54.0293 92.8691,54.0173 92.8691,52.4223 L92.8691,50.1823 C92.8691,49.9593 92.7871,49.7603 92.6701,49.6083 C92.4931,49.3843 91.1801,49.5723 90.8871,49.5723 L73.0371,49.3963 C72.7321,49.3843 70.8681,49.4073 70.7041,49.6553 C70.5981,49.7963 70.5391,49.9833 70.5391,50.1823 L70.5391,52.4223 C70.5391,54.3103 80.0981,54.0293 81.7041,54.0293" id="Fill-41" fill="#FFB438"></path>
                <path d="M81.7158,50.7681 C87.7788,50.7681 92.7168,50.2881 92.7168,49.6901 C92.7168,49.0921 87.7788,48.6111 81.7158,48.6111 C75.6638,48.6111 70.7158,49.0921 70.7158,49.6901 C70.7158,50.2881 75.6638,50.7681 81.7158,50.7681" id="Fill-43" fill="#FCD471"></path>
                <path d="M81.7158,48.8804 C76.7318,48.8804 72.5218,49.1974 71.1728,49.6434 C73.3658,49.3384 77.2718,49.1384 81.7158,49.1384 C86.1608,49.1384 90.0668,49.3384 92.2588,49.6434 C90.9098,49.1974 86.6998,48.8804 81.7158,48.8804" id="Fill-45" fill="#FFB438"></path>
                <g id="Group-49" transform="translate(72.000000, 45.000000)">
                    <mask id="mask-2" fill="white">
                        <use xlink:href="#path-1"></use>
                    </mask>
                    <g id="Clip-48"></g>
                    <path d="M12.1552,4.7485 C13.6792,4.7485 23.3202,4.7485 23.3202,3.1415 L23.3202,0.9145 C23.3202,0.6905 23.2382,0.4905 23.1202,0.3265 C22.9442,0.1155 21.6312,0.3035 21.3382,0.2915 L3.4882,0.1155 C3.1832,0.1155 1.3312,0.1395 1.1542,0.3735 C1.0492,0.5265 0.9902,0.7145 0.9902,0.9145 L0.9902,3.1415 C0.9902,5.0415 10.5492,4.7485 12.1552,4.7485" id="Fill-47" fill="#FFB438" mask="url(#mask-2)"></path>
                </g>
                <path d="M84.1669,46.4883 C90.2299,46.4883 95.1679,46.0073 95.1679,45.4213 C95.1679,44.8223 90.2299,44.3423 84.1669,44.3423 C78.1149,44.3423 73.1659,44.8223 73.1659,45.4213 C73.1659,46.0073 78.1149,46.4883 84.1669,46.4883" id="Fill-50" fill="#FCD471"></path>
                <path d="M84.1669,44.5991 C79.1829,44.5991 74.9729,44.9281 73.6239,45.3731 C75.8159,45.0691 79.7219,44.8701 84.1669,44.8701 C88.6119,44.8701 92.5169,45.0691 94.7099,45.3731 C93.3609,44.9281 89.1509,44.5991 84.1669,44.5991" id="Fill-52" fill="#FFB438"></path>
                <path d="M81.3876,45.4795 C82.9116,45.4795 92.5646,45.4675 92.5646,43.8725 L92.5646,41.6325 C92.5646,41.4095 92.4816,41.2105 92.3526,41.0465 C92.1886,40.8355 90.8746,41.0225 90.5816,41.0225 L72.7326,40.8355 C72.4156,40.8355 70.5626,40.8595 70.3986,41.0935 C70.2926,41.2465 70.2226,41.4335 70.2226,41.6325 L70.2226,43.8725 C70.2226,45.7615 79.7806,45.4795 81.3876,45.4795" id="Fill-54" fill="#FFB438"></path>
                <path d="M81.4111,42.2192 C87.4631,42.2192 92.3991,41.7262 92.3991,41.1402 C92.3991,40.5432 87.4631,40.0612 81.4111,40.0612 C75.3481,40.0612 70.4101,40.5432 70.4101,41.1402 C70.4101,41.7262 75.3481,42.2192 81.4111,42.2192" id="Fill-56" fill="#FCD471"></path>
                <path d="M81.4111,40.3198 C76.4271,40.3198 72.2171,40.6478 70.8681,41.0928 C73.0601,40.7888 76.9541,40.5898 81.4111,40.5898 C85.8551,40.5898 89.7611,40.7888 91.9541,41.0928 C90.6051,40.6478 86.3951,40.3198 81.4111,40.3198" id="Fill-58" fill="#FFB438"></path>
                <path d="M76.8261,40.8008 C78.3261,40.5428 87.8261,38.9238 87.5561,37.3518 L87.1921,35.1358 C87.1451,34.9248 87.0401,34.7368 86.8881,34.6088 C86.6881,34.4208 85.4221,34.8188 85.1291,34.8658 L67.5131,37.6808 C67.1971,37.7278 65.3791,38.0558 65.2501,38.3258 C65.1681,38.4898 65.1331,38.6888 65.1681,38.8768 L65.5441,41.0818 C65.8601,42.9468 75.2421,41.0698 76.8261,40.8008" id="Fill-60" fill="#FFB438"></path>
                <path d="M75.9345,35.4643 C69.9415,36.4723 65.1675,37.7753 65.2615,38.3603 C65.3675,38.9473 70.3045,38.5953 76.2865,37.5863 C82.2795,36.5663 87.0515,35.2653 86.9465,34.6783 C86.8525,34.0913 81.9145,34.4433 75.9345,35.4643" id="Fill-62" fill="#FCD471"></path>
                <path d="M75.9697,35.7222 C71.0557,36.5552 66.9627,37.5752 65.7077,38.2432 C67.8187,37.5752 71.6297,36.7182 76.0167,35.9802 C80.4027,35.2302 84.2837,34.7842 86.5007,34.7142 C85.0937,34.5022 80.8837,34.8892 75.9697,35.7222" id="Fill-64" fill="#FFB438"></path>
                <path d="M65.4853,69.3686 C71.8293,69.3686 77.0013,64.1976 77.0013,57.8516 C77.0013,51.5076 71.8293,46.3356 65.4853,46.3356 C59.1403,46.3356 53.9673,51.5076 53.9673,57.8516 C53.9673,64.1976 59.1403,69.3686 65.4853,69.3686" id="Fill-66" fill="#FFB438"></path>
                <path d="M65.4853,67.3276 C70.7043,67.3276 74.9723,63.0716 74.9723,57.8516 C74.9723,52.6336 70.7043,48.3646 65.4853,48.3646 C60.2663,48.3646 55.9973,52.6336 55.9973,57.8516 C55.9973,63.0716 60.2663,67.3276 65.4853,67.3276" id="Fill-68" fill="#FCD471"></path>
                <path d="M65.4853,66.7886 C70.4103,66.7886 74.4213,62.7776 74.4213,57.8516 C74.4213,52.9266 70.4103,48.9156 65.4853,48.9156 C60.5593,48.9156 56.5483,52.9266 56.5483,57.8516 C56.5483,62.7776 60.5593,66.7886 65.4853,66.7886" id="Fill-70" fill="#FFB438"></path>
                <path d="M64.5117,63.001 L66.5637,63.001 L66.5637,62.168 C67.7007,61.769 68.5227,60.76 68.5227,59.552 C68.5227,58.885 68.2877,58.275 67.8657,57.793 C67.3027,57.136 66.4347,56.714 65.4737,56.714 C65.0627,56.714 64.7347,56.41 64.7347,56.034 C64.7347,55.648 65.0627,55.331 65.4737,55.331 C65.8837,55.331 66.2237,55.648 66.2237,56.034 L68.5227,56.034 C68.5227,54.839 67.7007,53.818 66.5637,53.418 L66.5637,52.458 L64.5117,52.458 L64.5117,53.384 C63.2917,53.748 62.4357,54.803 62.4357,56.046 C62.4357,57.594 63.7837,58.838 65.4737,58.838 C65.8837,58.838 66.2237,59.154 66.2237,59.529 C66.2237,59.904 65.8837,60.209 65.4737,60.209 C65.0627,60.209 64.7347,59.904 64.7347,59.518 L62.4117,59.518 C62.4117,60.807 63.2917,61.852 64.5117,62.214 L64.5117,63.001 Z" id="Fill-72" fill="#FCD471"></path>
            </g>
        </g>
    </g>
</svg>