<svg id="Layer_1" data-name="Layer 1" xmlns="http://www.w3.org/2000/svg" xmlns:xlink="http://www.w3.org/1999/xlink" viewBox="0 0 18.6787 18.6787"><defs><clipPath id="clip-path"><path d="M-57.6015,3.80251l-1.82682,1.82682-1.82682-1.82682,1.82682-1.82682Zm7.77423,4.156-1.82682,1.82682-1.82682-1.82682,1.82682-1.82682Zm-5.37888.426L-57.033,10.21134l-1.82682-1.82682L-57.033,6.55769Zm-4.91194,6.07418-1.82682-1.82682,1.82682-1.82682,1.82682,1.82682Zm10.08494,2.36993H-64.44491a.29412.29412,0,0,1-.29412-.29412V2.12275a.29412.29412,0,0,1,.29412-.29412h.58823a.29412.29412,0,0,1,.29412.29412V15.65216h13.52941a.29412.29412,0,0,1,.29412.29412v.58823A.29412.29412,0,0,1-50.03315,16.82863Z" style="fill:#8786a4"/></clipPath><clipPath id="clip-path-2"><path d="M-27.55356,16.82863H-41.96532a.29412.29412,0,0,1-.29412-.29412V2.12275a.29412.29412,0,0,1,.29412-.29412h.58823a.29412.29412,0,0,1,.29412.29412V15.65216h13.52941a.29412.29412,0,0,1,.29412.29412v.58823A.29412.29412,0,0,1-27.55356,16.82863Z" style="fill:#8786a4"/></clipPath><clipPath id="clip-path-3"><path d="M-39.48126,3.99919h11.42684V5.94142H-39.48126Zm0,3.653h6.63418V9.56761h-6.63418Zm0,3.62619h9.36251V13.19h-9.36251Z" style="fill:#8786a4"/></clipPath><clipPath id="clip-path-4"><path d="M-5.83165,9.31235a7.20793,7.20793,0,0,1-7.2,7.2,7.2044,7.2044,0,0,1-4.49775-1.58091l2.57766-2.57794a3.56215,3.56215,0,0,0,1.92009.55885,3.60406,3.60406,0,0,0,3.6-3.6A3.57366,3.57366,0,0,0-12.1879,5.8167V2.16635A7.24251,7.24251,0,0,1-5.83165,9.31235Zm-8.07187-7.14262V5.82345a3.57343,3.57343,0,0,0-2.72813,3.4889,3.56031,3.56031,0,0,0,.4891,1.80563l-2.58891,2.5889a7.20575,7.20575,0,0,1-1.50019-4.39453A7.24284,7.24284,0,0,1-13.90352,2.16973Z" style="fill:#8786a4;clip-rule:evenodd"/></clipPath><clipPath id="clip-path-5"><path d="M8.26724,10.40074H15.7404a6.95842,6.95842,0,0,1-6.93631,6.42789c-.18158,0-.35842-.01421-.53685-.02684a6.95684,6.95684,0,0,1-6.401-6.401c-.01263-.17843-.02684-.35527-.02684-.53685A6.95842,6.95842,0,0,1,8.26724,2.92758Zm8.54527-1.07211H9.33935V1.85547c.17842-.01263.35526-.02684.53526-.02684a6.96474,6.96474,0,0,1,6.96474,6.96474C16.83935,8.97337,16.82514,9.15021,16.81251,9.32863Z" style="fill:#8786a4"/></clipPath><clipPath id="clip-path-6"><path d="M39.35319,1V3.26667h.83754c-.23035,4.94643-1.1033,8.03873-2.53754,9.01453v-.51453H35.38653v.3621a13.57905,13.57905,0,0,1-2.36244-3.03,12.72534,12.72534,0,0,0-2.1709-2.80443V4.96667H28.58653v1.1169c-1.53312.83753-2.46557,3.75926-3.08862,9.64976h-.87805V18h2.26667V15.73333h-.81884c.55307-5.19548,1.34159-8.02,2.51884-8.97v.47h2.26666V7.067a17.23189,17.23189,0,0,1,1.69575,2.34061,11.47572,11.47572,0,0,0,2.83759,3.4153v1.2104h2.26666V12.9357c1.80625-.88768,2.85034-4.1378,3.10477-9.669h.8619V1Z" style="fill:#8786a4"/></clipPath></defs><title>Untitled-2</title><g style="isolation:isolate"><path d="M-57.6015,3.80251l-1.82682,1.82682-1.82682-1.82682,1.82682-1.82682Zm7.77423,4.156-1.82682,1.82682-1.82682-1.82682,1.82682-1.82682Zm-5.37888.426L-57.033,10.21134l-1.82682-1.82682L-57.033,6.55769Zm-4.91194,6.07418-1.82682-1.82682,1.82682-1.82682,1.82682,1.82682Zm10.08494,2.36993H-64.44491a.29412.29412,0,0,1-.29412-.29412V2.12275a.29412.29412,0,0,1,.29412-.29412h.58823a.29412.29412,0,0,1,.29412.29412V15.65216h13.52941a.29412.29412,0,0,1,.29412.29412v.58823A.29412.29412,0,0,1-50.03315,16.82863Z" style="fill:#8786a4"/></g><g style="isolation:isolate"><path d="M-27.55356,16.82863H-41.96532a.29412.29412,0,0,1-.29412-.29412V2.12275a.29412.29412,0,0,1,.29412-.29412h.58823a.29412.29412,0,0,1,.29412.29412V15.65216h13.52941a.29412.29412,0,0,1,.29412.29412v.58823A.29412.29412,0,0,1-27.55356,16.82863Z" style="fill:#8786a4"/></g><g style="isolation:isolate"><path d="M-39.48126,3.99919h11.42684V5.94142H-39.48126Zm0,3.653h6.63418V9.56761h-6.63418Zm0,3.62619h9.36251V13.19h-9.36251Z" style="fill:#8786a4"/></g><path d="M-5.83165,9.31235a7.20793,7.20793,0,0,1-7.2,7.2,7.2044,7.2044,0,0,1-4.49775-1.58091l2.57766-2.57794a3.56215,3.56215,0,0,0,1.92009.55885,3.60406,3.60406,0,0,0,3.6-3.6A3.57366,3.57366,0,0,0-12.1879,5.8167V2.16635A7.24251,7.24251,0,0,1-5.83165,9.31235Zm-8.07187-7.14262V5.82345a3.57343,3.57343,0,0,0-2.72813,3.4889,3.56031,3.56031,0,0,0,.4891,1.80563l-2.58891,2.5889a7.20575,7.20575,0,0,1-1.50019-4.39453A7.24284,7.24284,0,0,1-13.90352,2.16973Z" style="fill:#8786a4;fill-rule:evenodd"/><g style="clip-path:url(#clip-path-4)"><rect x="-2190.03165" y="-758.66177" width="2400" height="3281" style="fill:#8786a4"/></g><g style="isolation:isolate"><path d="M8.26724,10.40074H15.7404a6.95842,6.95842,0,0,1-6.93631,6.42789c-.18158,0-.35842-.01421-.53685-.02684a6.95684,6.95684,0,0,1-6.401-6.401c-.01263-.17843-.02684-.35527-.02684-.53685A6.95842,6.95842,0,0,1,8.26724,2.92758Zm8.54527-1.07211H9.33935V1.85547c.17842-.01263.35526-.02684.53526-.02684a6.96474,6.96474,0,0,1,6.96474,6.96474C16.83935,8.97337,16.82514,9.15021,16.81251,9.32863Z" style="fill:#8786a4"/></g><g style="isolation:isolate"><path d="M39.35319,1V3.26667h.83754c-.23035,4.94643-1.1033,8.03873-2.53754,9.01453v-.51453H35.38653v.3621a13.57905,13.57905,0,0,1-2.36244-3.03,12.72534,12.72534,0,0,0-2.1709-2.80443V4.96667H28.58653v1.1169c-1.53312.83753-2.46557,3.75926-3.08862,9.64976h-.87805V18h2.26667V15.73333h-.81884c.55307-5.19548,1.34159-8.02,2.51884-8.97v.47h2.26666V7.067a17.23189,17.23189,0,0,1,1.69575,2.34061,11.47572,11.47572,0,0,0,2.83759,3.4153v1.2104h2.26666V12.9357c1.80625-.88768,2.85034-4.1378,3.10477-9.669h.8619V1Z" style="fill:#8786a4"/></g></svg>