<?xml version="1.0" encoding="utf-8"?>
<!-- Generator: Adobe Illustrator 23.0.4, SVG Export Plug-In . SVG Version: 6.00 Build 0)  -->
<svg version="1.1" id="Layer_1" xmlns="http://www.w3.org/2000/svg" xmlns:xlink="http://www.w3.org/1999/xlink" x="0px" y="0px"
	 viewBox="0 0 18.7 18.7" style="enable-background:new 0 0 18.7 18.7;" xml:space="preserve">
<style type="text/css">
	.st0{fill:#FFFFFF;}
</style>
<g>
	<path class="st0" d="M8.8,3.8L6.9,5.6L5.1,3.8L6.9,2L8.8,3.8z M16.5,8l-1.8,1.8L12.9,8l1.8-1.8L16.5,8z M11.1,8.4l-1.8,1.8L7.5,8.4
		l1.8-1.8L11.1,8.4z M6.2,14.5l-1.8-1.8l1.8-1.8l1.8,1.8L6.2,14.5z M16.3,16.8H1.9c-0.2,0-0.3-0.1-0.3-0.3c0,0,0,0,0,0V2.1
		c0-0.2,0.1-0.3,0.3-0.3c0,0,0,0,0,0h0.6c0.2,0,0.3,0.1,0.3,0.3c0,0,0,0,0,0v13.5h13.5c0.2,0,0.3,0.1,0.3,0.3c0,0,0,0,0,0v0.6
		C16.6,16.7,16.5,16.8,16.3,16.8C16.3,16.8,16.3,16.8,16.3,16.8z"/>
</g>
</svg>
