<svg id="Layer_1" data-name="Layer 1" xmlns="http://www.w3.org/2000/svg" xmlns:xlink="http://www.w3.org/1999/xlink" viewBox="0 0 18.6787 18.6787"><defs><clipPath id="clip-path"><path d="M8.75131,3.80251,6.92449,5.62933,5.09767,3.80251,6.92449,1.97569Zm7.77422,4.156L14.69872,9.78535,12.8719,7.95853l1.82682-1.82682Zm-5.37888.426L9.31983,10.21134,7.493,8.38452,9.31983,6.55769ZM6.23472,14.4587,4.4079,12.63188l1.82682-1.82682,1.82682,1.82682Zm10.08493,2.36993H1.9079a.29412.29412,0,0,1-.29413-.29412V2.12275a.29412.29412,0,0,1,.29413-.29412h.58823a.29411.29411,0,0,1,.29411.29412V15.65216H16.31965a.29411.29411,0,0,1,.29412.29412v.58823A.29411.29411,0,0,1,16.31965,16.82863Z" style="fill:#8786a4"/></clipPath><clipPath id="clip-path-2"><path d="M38.79925,16.82863H24.38749a.29412.29412,0,0,1-.29412-.29412V2.12275a.29412.29412,0,0,1,.29412-.29412h.58823a.29412.29412,0,0,1,.29412.29412V15.65216H38.79925a.29412.29412,0,0,1,.29412.29412v.58823A.29412.29412,0,0,1,38.79925,16.82863Z" style="fill:#8786a4"/></clipPath><clipPath id="clip-path-3"><path d="M26.87155,3.99919H38.29839V5.94142H26.87155Zm0,3.653h6.63418V9.56761H26.87155Zm0,3.62619h9.36251V13.19H26.87155Z" style="fill:#8786a4"/></clipPath><clipPath id="clip-path-4"><path d="M60.52116,9.31235a7.197,7.197,0,0,1-11.69775,5.61909l2.57766-2.57794a3.56215,3.56215,0,0,0,1.92009.55885,3.59772,3.59772,0,0,0,.84375-7.09565V2.16635A7.24251,7.24251,0,0,1,60.52116,9.31235ZM52.44928,2.16973V5.82345a3.5905,3.5905,0,0,0-2.239,5.29453l-2.5889,2.5889A7.19268,7.19268,0,0,1,52.44928,2.16973Z" style="fill:#8786a4;clip-rule:evenodd"/></clipPath><clipPath id="clip-path-5"><path d="M74.62005,10.40074h7.47316a6.95842,6.95842,0,0,1-6.93631,6.42789c-.18158,0-.35843-.01421-.53685-.02684a6.95683,6.95683,0,0,1-6.40105-6.401c-.01264-.17843-.02684-.35527-.02684-.53685a6.95841,6.95841,0,0,1,6.42789-6.93631Zm8.54526-1.07211H75.69216V1.85547c.17842-.01263.35525-.02684.53525-.02684a6.96475,6.96475,0,0,1,6.96475,6.96474C83.19216,8.97337,83.178,9.15021,83.16531,9.32863Z" style="fill:#8786a4"/></clipPath></defs><title>Untitled-2</title><g style="isolation:isolate"><path d="M8.75131,3.80251,6.92449,5.62933,5.09767,3.80251,6.92449,1.97569Zm7.77422,4.156L14.69872,9.78535,12.8719,7.95853l1.82682-1.82682Zm-5.37888.426L9.31983,10.21134,7.493,8.38452,9.31983,6.55769ZM6.23472,14.4587,4.4079,12.63188l1.82682-1.82682,1.82682,1.82682Zm10.08493,2.36993H1.9079a.29412.29412,0,0,1-.29413-.29412V2.12275a.29412.29412,0,0,1,.29413-.29412h.58823a.29411.29411,0,0,1,.29411.29412V15.65216H16.31965a.29411.29411,0,0,1,.29412.29412v.58823A.29411.29411,0,0,1,16.31965,16.82863Z" style="fill:#8786a4"/></g><g style="isolation:isolate"><path d="M38.79925,16.82863H24.38749a.29412.29412,0,0,1-.29412-.29412V2.12275a.29412.29412,0,0,1,.29412-.29412h.58823a.29412.29412,0,0,1,.29412.29412V15.65216H38.79925a.29412.29412,0,0,1,.29412.29412v.58823A.29412.29412,0,0,1,38.79925,16.82863Z" style="fill:#8786a4"/></g><g style="isolation:isolate"><path d="M26.87155,3.99919H38.29839V5.94142H26.87155Zm0,3.653h6.63418V9.56761H26.87155Zm0,3.62619h9.36251V13.19H26.87155Z" style="fill:#8786a4"/></g><path d="M60.52116,9.31235a7.197,7.197,0,0,1-11.69775,5.61909l2.57766-2.57794a3.56215,3.56215,0,0,0,1.92009.55885,3.59772,3.59772,0,0,0,.84375-7.09565V2.16635A7.24251,7.24251,0,0,1,60.52116,9.31235ZM52.44928,2.16973V5.82345a3.5905,3.5905,0,0,0-2.239,5.29453l-2.5889,2.5889A7.19268,7.19268,0,0,1,52.44928,2.16973Z" style="fill:#8786a4;fill-rule:evenodd"/><g style="clip-path:url(#clip-path-4)"><rect x="-2123.67884" y="-758.66177" width="2400" height="3281" style="fill:#8786a4"/></g><g style="isolation:isolate"><path d="M74.62005,10.40074h7.47316a6.95842,6.95842,0,0,1-6.93631,6.42789c-.18158,0-.35843-.01421-.53685-.02684a6.95683,6.95683,0,0,1-6.40105-6.401c-.01264-.17843-.02684-.35527-.02684-.53685a6.95841,6.95841,0,0,1,6.42789-6.93631Zm8.54526-1.07211H75.69216V1.85547c.17842-.01263.35525-.02684.53525-.02684a6.96475,6.96475,0,0,1,6.96475,6.96474C83.19216,8.97337,83.178,9.15021,83.16531,9.32863Z" style="fill:#8786a4"/></g></svg>