<svg id="Layer_1" data-name="Layer 1" xmlns="http://www.w3.org/2000/svg" xmlns:xlink="http://www.w3.org/1999/xlink" viewBox="0 0 18.6787 18.6787"><defs><clipPath id="clip-path"><path d="M-65.27071,3.55787h14.37618V6.0014H-65.27071Zm0,4.59586h8.3465v2.4098h-8.3465Zm0,4.56213h11.779v2.405h-11.779Z" style="fill:#8786a4"/></clipPath><clipPath id="clip-path-2"><path d="M-29.45151,9.31235a7.20793,7.20793,0,0,1-7.2,7.2,7.2044,7.2044,0,0,1-4.49775-1.58091l2.57766-2.57794a3.56215,3.56215,0,0,0,1.92009.55885,3.60406,3.60406,0,0,0,3.6-3.6A3.57366,3.57366,0,0,0-35.80776,5.8167V2.16635A7.24251,7.24251,0,0,1-29.45151,9.31235Zm-8.07187-7.14262V5.82345a3.57343,3.57343,0,0,0-2.72813,3.4889,3.5604,3.5604,0,0,0,.48909,1.80563l-2.5889,2.5889a7.20575,7.20575,0,0,1-1.50019-4.39453A7.24284,7.24284,0,0,1-37.52338,2.16973Z" style="fill:#8786a4;clip-rule:evenodd"/></clipPath><clipPath id="clip-path-3"><path d="M-15.35262,10.40074h7.47316a6.95842,6.95842,0,0,1-6.93631,6.42789c-.18158,0-.35842-.01421-.53685-.02684a6.95683,6.95683,0,0,1-6.401-6.401c-.01263-.17843-.02684-.35527-.02684-.53685a6.95841,6.95841,0,0,1,6.42789-6.93631Zm8.54527-1.07211h-7.47316V1.85547c.17842-.01263.35525-.02684.53526-.02684A6.96475,6.96475,0,0,1-6.78051,8.79337C-6.78051,8.97337-6.79472,9.15021-6.80735,9.32863Z" style="fill:#8786a4"/></clipPath><clipPath id="clip-path-4"><path d="M63.52579,16.35387a1.05536,1.05536,0,0,1-1.08947-1.01722V2.79091a1.092,1.092,0,0,1,2.17893,0V15.33665a1.05537,1.05537,0,0,1-1.08946,1.01722m-3.8126-1.01722V6.93049a1.092,1.092,0,0,0-2.17893,0v8.40616a1.092,1.092,0,0,0,2.17893,0m-4.90315,0V11.0711a1.092,1.092,0,0,0-2.17894,0v4.26555a1.092,1.092,0,0,0,2.17894,0" style="fill:#8786a4"/></clipPath><clipPath id="clip-path-5"><path d="M91.11525,16.83935H76.70349a.29412.29412,0,0,1-.29412-.29412V2.13347a.29412.29412,0,0,1,.29412-.29412h.58823a.29412.29412,0,0,1,.29412.29412V15.66288H91.11525a.29412.29412,0,0,1,.29412.29412v.58823A.29412.29412,0,0,1,91.11525,16.83935ZM89.01566,4.66741a1.73077,1.73077,0,1,1-1.73077-1.73077A1.73077,1.73077,0,0,1,89.01566,4.66741Zm-2.26018,5.64026a3.58371,3.58371,0,1,1-3.5837-3.5837A3.5837,3.5837,0,0,1,86.75548,10.30767Z" style="fill:#8786a4"/></clipPath></defs><title>Untitled-2</title><g style="isolation:isolate"><path d="M-65.27071,3.55787h14.37618V6.0014H-65.27071Zm0,4.59586h8.3465v2.4098h-8.3465Zm0,4.56213h11.779v2.405h-11.779Z" style="fill:#8786a4"/></g><path d="M-29.45151,9.31235a7.20793,7.20793,0,0,1-7.2,7.2,7.2044,7.2044,0,0,1-4.49775-1.58091l2.57766-2.57794a3.56215,3.56215,0,0,0,1.92009.55885,3.60406,3.60406,0,0,0,3.6-3.6A3.57366,3.57366,0,0,0-35.80776,5.8167V2.16635A7.24251,7.24251,0,0,1-29.45151,9.31235Zm-8.07187-7.14262V5.82345a3.57343,3.57343,0,0,0-2.72813,3.4889,3.5604,3.5604,0,0,0,.48909,1.80563l-2.5889,2.5889a7.20575,7.20575,0,0,1-1.50019-4.39453A7.24284,7.24284,0,0,1-37.52338,2.16973Z" style="fill:#8786a4;fill-rule:evenodd"/><g style="clip-path:url(#clip-path-2)"><rect x="-2213.65151" y="-758.66177" width="2400" height="3281" style="fill:#8786a4"/></g><g style="isolation:isolate"><path d="M-15.35262,10.40074h7.47316a6.95842,6.95842,0,0,1-6.93631,6.42789c-.18158,0-.35842-.01421-.53685-.02684a6.95683,6.95683,0,0,1-6.401-6.401c-.01263-.17843-.02684-.35527-.02684-.53685a6.95841,6.95841,0,0,1,6.42789-6.93631Zm8.54527-1.07211h-7.47316V1.85547c.17842-.01263.35525-.02684.53526-.02684A6.96475,6.96475,0,0,1-6.78051,8.79337C-6.78051,8.97337-6.79472,9.15021-6.80735,9.32863Z" style="fill:#8786a4"/></g><path d="M14.17821,1.13478V4.124h.7295c-.23145,3.9917-.91016,5.84228-1.51856,6.69824h-2.459A17.605,17.605,0,0,1,9.352,8.62941,13.21967,13.21967,0,0,0,7.48,6.15627V4.70412H4.49071V5.92189c-1.35253.96045-2.17578,3.519-2.72949,8.46973H.92236v2.98974H3.91161V14.39162H3.229c.3916-3.42774.91211-5.62549,1.58789-6.69825H6.92236a20.50838,20.50838,0,0,1,1.21,1.74024,11.89484,11.89484,0,0,0,2.47754,3.06592V13.812h2.99023V12.6255c1.57617-1.00976,2.50684-3.86767,2.76953-8.50146h.79981V1.13478Z" style="fill:#8786a4"/><g style="isolation:isolate"><path d="M63.52579,16.35387a1.05536,1.05536,0,0,1-1.08947-1.01722V2.79091a1.092,1.092,0,0,1,2.17893,0V15.33665a1.05537,1.05537,0,0,1-1.08946,1.01722m-3.8126-1.01722V6.93049a1.092,1.092,0,0,0-2.17893,0v8.40616a1.092,1.092,0,0,0,2.17893,0m-4.90315,0V11.0711a1.092,1.092,0,0,0-2.17894,0v4.26555a1.092,1.092,0,0,0,2.17894,0" style="fill:#8786a4"/></g><g style="isolation:isolate"><path d="M91.11525,16.83935H76.70349a.29412.29412,0,0,1-.29412-.29412V2.13347a.29412.29412,0,0,1,.29412-.29412h.58823a.29412.29412,0,0,1,.29412.29412V15.66288H91.11525a.29412.29412,0,0,1,.29412.29412v.58823A.29412.29412,0,0,1,91.11525,16.83935ZM89.01566,4.66741a1.73077,1.73077,0,1,1-1.73077-1.73077A1.73077,1.73077,0,0,1,89.01566,4.66741Zm-2.26018,5.64026a3.58371,3.58371,0,1,1-3.5837-3.5837A3.5837,3.5837,0,0,1,86.75548,10.30767Z" style="fill:#8786a4"/></g></svg>