<?xml version="1.0" encoding="utf-8"?>
<!-- Generator: Adobe Illustrator 23.0.4, SVG Export Plug-In . SVG Version: 6.00 Build 0)  -->
<svg version="1.1" id="Layer_1" xmlns="http://www.w3.org/2000/svg" xmlns:xlink="http://www.w3.org/1999/xlink" x="0px" y="0px"
	 viewBox="0 0 18.7 18.7" style="enable-background:new 0 0 18.7 18.7;" xml:space="preserve">
<style type="text/css">
	.st0{fill:#FFFFFF;}
</style>
<path class="st0" d="M14.2,1.1v3h0.7c-0.2,4-0.9,5.8-1.5,6.7h-2.5c-0.6-0.7-1.1-1.4-1.6-2.2C8.8,7.7,8.2,6.9,7.5,6.2V4.7h-3v1.2
	c-1.4,1-2.2,3.5-2.7,8.5H0.9v3h3v-3H3.2C3.6,11,4.1,8.8,4.8,7.7h2.1c0.4,0.6,0.8,1.1,1.2,1.7c0.6,1.2,1.5,2.2,2.5,3.1v1.3h3v-1.2
	c1.6-1,2.5-3.9,2.8-8.5h0.8v-3H14.2z"/>
</svg>
