<svg id="Layer_1" data-name="Layer 1" xmlns="http://www.w3.org/2000/svg" xmlns:xlink="http://www.w3.org/1999/xlink" viewBox="0 0 18.6787 18.6787"><defs><clipPath id="clip-path"><path d="M-117.922,9.31235a7.20793,7.20793,0,0,1-7.2,7.2,7.2044,7.2044,0,0,1-4.49775-1.58091l2.57766-2.57794a3.56215,3.56215,0,0,0,1.92009.55885,3.60406,3.60406,0,0,0,3.6-3.6,3.57366,3.57366,0,0,0-2.75625-3.49565V2.16635A7.24251,7.24251,0,0,1-117.922,9.31235Zm-8.07187-7.14262V5.82345a3.57343,3.57343,0,0,0-2.72813,3.4889,3.5604,3.5604,0,0,0,.48909,1.80563l-2.5889,2.5889A7.20575,7.20575,0,0,1-132.322,9.31235,7.24284,7.24284,0,0,1-125.99383,2.16973Z" style="fill:#8786a4;clip-rule:evenodd"/></clipPath><clipPath id="clip-path-2"><path d="M-59.31928,13.69487l2.26466.65012a.54417.54417,0,0,0,.50286-.11135l2.22157-1.91446L-52.5005,13.544a.54127.54127,0,0,0,.66808-.05028l4.344-4.00133a.54311.54311,0,0,0,.16339-.518.54311.54311,0,0,0-.36691-.40049.54314.54314,0,0,0-.53029.1175l-4.03006,3.71038-1.81784-1.21764a.54166.54166,0,0,0-.6548.03952L-57.037,13.21355l-2.25317-.64652a.54418.54418,0,0,0-.4885.10056l-1.1088.89079V12.409l1.18531-.89079,1.90369.63575a.53876.53876,0,0,0,.57793-.15444l2.63607-2.97765,2.17414.93388a.53879.53879,0,0,0,.69288-.24425l2.89611-5.45243a.5492.5492,0,0,0-.22341-.73992.54344.54344,0,0,0-.41414-.039.54337.54337,0,0,0-.32039.26529l-2.66158,5.01063-2.07573-.89437a.54524.54524,0,0,0-.61959.14008l-2.658,3.00279L-59.626,10.394a.53876.53876,0,0,0-.49783.079l-.76.5747V3.27489a.543.543,0,0,0-.26734-.48195.54309.54309,0,0,0-.55113,0,.5431.5431,0,0,0-.26735.48195l.01114,12.64693a.5413.5413,0,0,0,.54561.53519h12.91344a.53881.53881,0,0,0,.50305-.255.53878.53878,0,0,0,0-.564.5388.5388,0,0,0-.50305-.255H-60.871l-.01653-.42743Z" style="fill:#8786a4"/></clipPath><clipPath id="clip-path-3"><path d="M-24.94466,16.35387a1.05536,1.05536,0,0,1-1.08947-1.01722V2.79091a1.05536,1.05536,0,0,1,1.08947-1.01722A1.05536,1.05536,0,0,1-23.8552,2.79091V15.33665a1.05537,1.05537,0,0,1-1.08946,1.01722m-3.8126-1.01722V6.93049a1.05537,1.05537,0,0,0-1.08947-1.01721,1.05524,1.05524,0,0,0-1.08946,1.01721v8.40616a1.05525,1.05525,0,0,0,1.08946,1.01722,1.05537,1.05537,0,0,0,1.08947-1.01722m-4.90315,0V11.0711a1.05537,1.05537,0,0,0-1.08947-1.01722,1.05536,1.05536,0,0,0-1.08947,1.01722v4.26555a1.05537,1.05537,0,0,0,1.08947,1.01722,1.05538,1.05538,0,0,0,1.08947-1.01722" style="fill:#8786a4"/></clipPath></defs><title>Untitled-2</title><path d="M-117.922,9.31235a7.20793,7.20793,0,0,1-7.2,7.2,7.2044,7.2044,0,0,1-4.49775-1.58091l2.57766-2.57794a3.56215,3.56215,0,0,0,1.92009.55885,3.60406,3.60406,0,0,0,3.6-3.6,3.57366,3.57366,0,0,0-2.75625-3.49565V2.16635A7.24251,7.24251,0,0,1-117.922,9.31235Zm-8.07187-7.14262V5.82345a3.57343,3.57343,0,0,0-2.72813,3.4889,3.5604,3.5604,0,0,0,.48909,1.80563l-2.5889,2.5889A7.20575,7.20575,0,0,1-132.322,9.31235,7.24284,7.24284,0,0,1-125.99383,2.16973Z" style="fill:#8786a4;fill-rule:evenodd"/><g style="clip-path:url(#clip-path)"><rect x="-2302.12196" y="-758.66177" width="2400" height="3281" style="fill:#8786a4"/></g><g style="isolation:isolate"><path d="M-59.31928,13.69487l2.26466.65012a.54417.54417,0,0,0,.50286-.11135l2.22157-1.91446L-52.5005,13.544a.54127.54127,0,0,0,.66808-.05028l4.344-4.00133a.54311.54311,0,0,0,.16339-.518.54311.54311,0,0,0-.36691-.40049.54314.54314,0,0,0-.53029.1175l-4.03006,3.71038-1.81784-1.21764a.54166.54166,0,0,0-.6548.03952L-57.037,13.21355l-2.25317-.64652a.54418.54418,0,0,0-.4885.10056l-1.1088.89079V12.409l1.18531-.89079,1.90369.63575a.53876.53876,0,0,0,.57793-.15444l2.63607-2.97765,2.17414.93388a.53879.53879,0,0,0,.69288-.24425l2.89611-5.45243a.5492.5492,0,0,0-.22341-.73992.54344.54344,0,0,0-.41414-.039.54337.54337,0,0,0-.32039.26529l-2.66158,5.01063-2.07573-.89437a.54524.54524,0,0,0-.61959.14008l-2.658,3.00279L-59.626,10.394a.53876.53876,0,0,0-.49783.079l-.76.5747V3.27489a.543.543,0,0,0-.26734-.48195.54309.54309,0,0,0-.55113,0,.5431.5431,0,0,0-.26735.48195l.01114,12.64693a.5413.5413,0,0,0,.54561.53519h12.91344a.53881.53881,0,0,0,.50305-.255.53878.53878,0,0,0,0-.564.5388.5388,0,0,0-.50305-.255H-60.871l-.01653-.42743Z" style="fill:#8786a4"/></g><g style="isolation:isolate"><path d="M-24.94466,16.35387a1.05536,1.05536,0,0,1-1.08947-1.01722V2.79091a1.05536,1.05536,0,0,1,1.08947-1.01722A1.05536,1.05536,0,0,1-23.8552,2.79091V15.33665a1.05537,1.05537,0,0,1-1.08946,1.01722m-3.8126-1.01722V6.93049a1.05537,1.05537,0,0,0-1.08947-1.01721,1.05524,1.05524,0,0,0-1.08946,1.01721v8.40616a1.05525,1.05525,0,0,0,1.08946,1.01722,1.05537,1.05537,0,0,0,1.08947-1.01722m-4.90315,0V11.0711a1.05537,1.05537,0,0,0-1.08947-1.01722,1.05536,1.05536,0,0,0-1.08947,1.01722v4.26555a1.05537,1.05537,0,0,0,1.08947,1.01722,1.05538,1.05538,0,0,0,1.08947-1.01722" style="fill:#8786a4"/></g><rect x="2.32935" y="2.24991" width="13.99636" height="3.38008" style="fill:#8786a4"/><rect x="2.32935" y="7.05841" width="3.41733" height="9.80477" style="fill:#8786a4"/><rect x="7.61887" y="7.05841" width="3.41733" height="9.80477" style="fill:#8786a4"/><rect x="12.90839" y="7.05841" width="3.41733" height="9.80477" style="fill:#8786a4"/></svg>